<svg width="40" height="40" viewBox="0 0 40 40" fill="none" xmlns="http://www.w3.org/2000/svg">
<g id="01">
<path id="base-shape" fillRule="evenodd" clipRule="evenodd" d="M4.38091e-07 20.0447C1.9614e-07 8.97432 8.99544 -1.96602e-07 20.0919 -4.39122e-07C30.5437 -6.67553e-07 38.6662 8.38366 39.9267 17.906C40.7542 24.1582 34.4366 28.0626 28.1286 28.0626C28.1286 29.1696 27.2267 30.0671 26.1195 30.0671C25.0122 30.0671 24.0625 29.1696 24.0625 28.0626L20.0919 28.0626C15.6533 28.0626 12.0551 24.4729 12.0551 20.0447C12.0551 15.6166 15.6533 12.0268 20.0919 12.0268C24.5305 12.0268 28.1286 15.6166 28.1286 20.0447L28.1286 24.0536C32.5615 24.0536 36.7457 20.9108 35.7263 16.5976C34.0816 9.63905 27.8137 4.00894 20.0919 4.00894C11.2147 4.00894 4.01838 11.1884 4.01838 20.0447C4.01838 28.225 10.1581 34.9747 18.091 35.9574C19.1898 36.0936 20.0919 36.9779 20.0919 38.0849C20.0919 39.192 19.1917 40.0999 18.0898 39.9911C7.93332 38.9887 6.65309e-07 30.441 4.38091e-07 20.0447ZM24.0625 24.0536L24.1103 20.0447C24.1103 17.8306 22.3112 16.0358 20.0919 16.0358C17.8726 16.0358 16.0735 17.8306 16.0735 20.0447C16.0735 22.2588 17.8726 24.0536 20.0919 24.0536L24.0625 24.0536Z" fill="#1E2122"/>
<path id="shadow" fillRule="evenodd" clipRule="evenodd" d="M28.125 24.0536C28.7176 24.046 29.4298 23.9816 30 23.8667V27.9487C29.4208 28.0192 28.7106 28.0579 28.125 28.0626V24.0536ZM24.0625 28.0626H22.25V24.0536H24.0625V28.0626Z" fill="#333333"/>
</g>
</svg>
